<svg xmlns="http://www.w3.org/2000/svg" width="24" height="24" viewBox="0 0 24 24" fill="none">
    <path d="M4 12C4 16.4184 7.5816 20 12 20C16.4184 20 20 16.4184 20 12C20 7.5816 16.4184 4 12 4C7.5816 4 4 7.5816 4 12Z" stroke="black" stroke-width="1.3" stroke-linecap="round" stroke-linejoin="round"/>
    <path d="M12.7999 4.03998C12.7999 4.03998 15.1999 7.19998 15.1999 12C15.1999 16.8 12.7999 19.96 12.7999 19.96M11.1999 19.96C11.1999 19.96 8.79991 16.8 8.79991 12C8.79991 7.19998 11.1999 4.03998 11.1999 4.03998M4.50391 14.8H19.4959M4.50391 9.19998H19.4959" stroke="black" stroke-width="1.3" stroke-linecap="round" stroke-linejoin="round"/>
</svg>
