<svg xmlns="http://www.w3.org/2000/svg" width="164" height="40" viewBox="0 0 164 40" fill="none">
    <path d="M162.479 6.18182H138.08V6.45455H162.479V6.18182Z" fill="#D2D6DC"/>
    <path d="M162.479 12.3636H138.08V12.6363H162.479V12.3636Z" fill="#D2D6DC"/>
    <path d="M137.901 0V24.9091H162.568V0H137.901ZM162.3 0.272727V24.6364H138.169V0.363636L162.3 0.272727Z" fill="#D2D6DC"/>
    <path d="M162.479 18.5454H138.08V18.8182H162.479V18.5454Z" fill="#D2D6DC"/>
    <path d="M144.247 0.181824H143.979V24.8182H144.247V0.181824Z" fill="#D2D6DC"/>
    <path d="M150.413 0.181824H150.145V24.8182H150.413V0.181824Z" fill="#D2D6DC"/>
    <path d="M156.491 0.181824H156.223V24.8182H156.491V0.181824Z" fill="#D2D6DC"/>
    <path d="M137.901 18.5455L138.169 18.7273L156.401 0.27273L156.223 0.0909119L137.901 18.5455Z" fill="#D2D6DC"/>
    <path d="M144.067 24.7273L144.246 24.9091L162.567 6.45452L162.389 6.27271L144.067 24.7273Z" fill="#D2D6DC"/>
    <path d="M144.157 12.5454L138.08 18.7273V3.27271C138.08 1.63634 139.331 0.272705 140.94 0.272705C141.029 0.272705 141.119 0.272705 141.119 0.272705H144.157V12.5454Z" fill="#C31F41"/>
    <path d="M156.312 0.0909119H144.157V0.27273H156.312V0.0909119Z" fill="#231F20"/>
    <path d="M141.118 0.0909041C139.42 -4.96209e-06 137.99 1.36363 137.99 3.0909C137.99 3.18181 137.99 3.18181 137.99 3.27272V19L144.336 12.6364V0.0909041H141.118ZM138.169 3.27272C138.08 1.72727 139.331 0.363631 140.85 0.363631C140.94 0.363631 141.029 0.363631 141.118 0.363631H144.068V12.5455L138.169 18.4545V3.27272Z" fill="#231F20"/>
    <path d="M162.479 6.36362H162.3V18.7273H162.479V6.36362Z" fill="#231F20"/>
    <path d="M150.234 18.6364L144.067 24.8182H159.439C161.048 24.8182 162.389 23.5455 162.478 21.9091C162.478 21.8182 162.478 21.7273 162.478 21.7273V18.6364H150.234Z" fill="#D2D6DC"/>
    <path d="M150.234 18.5454L143.889 25H159.529C161.227 25.0909 162.567 23.7273 162.657 22C162.657 21.9091 162.657 21.8182 162.657 21.8182V18.6364H150.234V18.5454ZM162.299 18.7273V21.7273C162.389 23.2727 161.227 24.6364 159.618 24.7273C159.529 24.7273 159.439 24.7273 159.35 24.7273H144.246L150.145 18.7273H162.299Z" fill="#231F20"/>
    <path d="M2.50242 15.2727H0V12.7273H2.50242V6.36362H5.54106V12.7273H9.5628V15.2727H5.54106V38.3636H2.50242V15.2727Z" fill="#231F20"/>
    <path d="M12.2437 0H15.1929V15.0909C16.0867 13.3636 17.9635 12.2727 19.8403 12.3636C21.3596 12.2727 22.7896 13 23.5939 14.2727C24.3983 15.5455 24.7557 17.6364 24.7557 20.5455V38.3636H21.8065V20.0909C21.8958 18.6364 21.7171 17.2727 21.0915 15.9091C20.5553 15.0909 19.6615 14.6364 18.6785 14.8182C17.5166 14.8182 16.5335 15.4545 15.9973 16.4545C15.2823 17.9091 15.0142 19.6364 15.1036 21.2727V38.3636H12.1543V0H12.2437Z" fill="#231F20"/>
    <path d="M31.7274 3C32.2636 3 32.7105 3.18182 33.068 3.54545C33.4255 3.90909 33.6042 4.45455 33.6042 4.90909C33.6042 5.45455 33.4255 5.90909 33.068 6.27273C32.7105 6.63636 32.2636 6.90909 31.7274 6.81818C31.1912 6.81818 30.7443 6.63636 30.3868 6.18182C30.0293 5.81818 29.8506 5.27273 29.8506 4.81818C29.8506 4.27273 30.0293 3.81818 30.3868 3.45455C30.7443 3.18182 31.1912 3 31.7274 3ZM30.2081 12.7273H33.2467V38.3636H30.2081V12.7273Z" fill="#231F20"/>
    <path d="M39.0552 12.7273H42.0045V15.0909C42.4513 14.2728 43.1663 13.5455 43.9707 13.0909C44.775 12.6364 45.7581 12.3637 46.6518 12.4546C48.1711 12.3637 49.6011 13.0909 50.4054 14.3637C51.2098 15.6364 51.5673 17.7273 51.5673 20.6364V38.4546H48.618V20.0909C48.618 18.0909 48.3499 16.7273 47.903 15.9091C47.3668 15.0909 46.4731 14.7273 45.5793 14.8182C44.4175 14.8182 43.4344 15.4546 42.8982 16.4546C42.1832 17.9091 41.9151 19.6364 42.0045 21.2728V38.3637H38.9658V12.7273H39.0552Z" fill="#231F20"/>
    <path d="M57.1982 0.0909119H60.1475V38.4546H57.1982V0.0909119ZM66.4036 12.7273H69.7103L63.1862 23.9091L71.8552 38.4546H68.2804L60.1475 24.0909L66.4036 12.7273Z" fill="#231F20"/>
    <path d="M81.9544 23.7273H72.2129V26.2727H81.9544V23.7273Z" fill="#231F20"/>
    <path d="M97.0581 13.3636V17.0909C96.7006 16.5454 96.1644 16.0909 95.6282 15.7273C95.1813 15.4545 94.6451 15.2727 94.0195 15.2727C92.5001 15.2727 91.3383 16.1818 90.6233 17.9091C89.9084 19.6363 89.5509 22.3636 89.5509 26.1818C89.4615 28.6363 89.819 31 90.6233 33.2727C91.0702 34.7273 92.4108 35.6363 93.9301 35.7273C94.5557 35.7273 95.0919 35.5454 95.6282 35.2727C96.1644 34.9091 96.6113 34.4545 96.9687 33.8182V37.5454C96.4325 37.9091 95.8963 38.2727 95.2707 38.4545C94.6451 38.6363 94.0195 38.7273 93.3939 38.7273C91.2489 38.7273 89.5509 37.6363 88.2997 35.3636C87.0485 33.0909 86.4229 30 86.4229 26C86.4229 21.4545 87.0485 18.0909 88.2997 15.8182C89.3721 13.6363 91.5171 12.3636 93.9301 12.3636C94.4663 12.3636 95.0026 12.4545 95.5388 12.6363C96.1644 12.8182 96.6113 13 97.0581 13.3636Z" fill="#231F20"/>
    <path d="M112.966 26.3636H102.331V27.2727C102.242 29.5455 102.599 31.7273 103.404 33.8182C104.119 35.3636 105.102 36.1818 106.353 36.1818C107.425 36.1818 108.408 35.5455 108.855 34.5455C109.57 33.1818 109.928 31.5455 109.928 30H112.788C112.788 32.2727 112.162 34.5455 110.911 36.5455C109.123 39.0909 105.548 39.7273 103.046 37.8182C102.242 37.2727 101.616 36.4546 101.259 35.6364C100.097 33.4546 99.5605 30.1818 99.5605 25.8182C99.5605 21.4546 100.186 18.1818 101.348 15.8182C102.51 13.4546 104.297 12.2727 106.442 12.2727C108.587 12.2727 110.285 13.3636 111.358 15.6364C112.43 17.9091 113.056 21.1818 113.056 25.5455L112.966 26.3636ZM110.106 23.8182C110.196 21.6364 109.838 19.4546 109.123 17.4546C108.498 15.9091 107.604 15.1818 106.442 15.1818C105.28 15.1818 104.297 15.9091 103.582 17.4546C102.778 19.4546 102.331 21.7273 102.331 23.9091L110.106 23.8182Z" fill="#231F20"/>
    <path d="M120.027 0.0909119H116.988V38.4546H120.027V0.0909119Z" fill="#231F20"/>
    <path d="M128.875 0.0909119H125.836V38.4546H128.875V0.0909119Z" fill="#231F20"/>
    <path d="M31.8167 3C32.7998 3 33.6042 3.81818 33.6042 4.81818C33.6042 4.81818 33.6042 4.81818 33.6042 4.90909C33.6042 5.90909 32.7998 6.72727 31.8167 6.72727C30.8336 6.72727 30.0293 5.90909 30.0293 4.90909C30.0293 3.90909 30.8336 3.09091 31.8167 3Z" fill="#231F20"/>
</svg>
