<svg xmlns="http://www.w3.org/2000/svg" width="24" height="24" viewBox="0 0 24 24" fill="none">
    <path d="M19.9518 18.85L14.7579 13.656C15.5639 12.614 15.9999 11.34 15.9999 10C15.9999 8.39605 15.3739 6.89206 14.2419 5.75807C13.1099 4.62409 11.6019 4.00009 9.99994 4.00009C8.39796 4.00009 6.88997 4.62609 5.75798 5.75807C4.62399 6.89006 4 8.39605 4 10C4 11.602 4.62599 13.11 5.75798 14.242C6.88997 15.376 8.39596 16 9.99994 16C11.3399 16 12.6119 15.564 13.6539 14.76L18.8479 19.9519C18.8631 19.9672 18.8812 19.9793 18.9011 19.9875C18.921 19.9958 18.9423 20 18.9639 20C18.9854 20 19.0067 19.9958 19.0266 19.9875C19.0465 19.9793 19.0646 19.9672 19.0799 19.9519L19.9518 19.0819C19.9671 19.0667 19.9792 19.0486 19.9874 19.0287C19.9957 19.0088 19.9999 18.9875 19.9999 18.966C19.9999 18.9444 19.9957 18.9231 19.9874 18.9032C19.9792 18.8833 19.9671 18.8652 19.9518 18.85ZM13.1679 13.168C12.3199 14.014 11.1959 14.48 9.99994 14.48C8.80395 14.48 7.67997 14.014 6.83197 13.168C5.98598 12.32 5.51999 11.196 5.51999 10C5.51999 8.80405 5.98598 7.67806 6.83197 6.83206C7.67997 5.98607 8.80395 5.52008 9.99994 5.52008C11.1959 5.52008 12.3219 5.98407 13.1679 6.83206C14.0139 7.68006 14.4799 8.80405 14.4799 10C14.4799 11.196 14.0139 12.322 13.1679 13.168Z" fill="black"/>
</svg>
